<svg width="30" height="16" viewBox="0 0 30 16" fill="none" xmlns="http://www.w3.org/2000/svg">
<path d="M13.5 15.5H7.5C5.425 15.5 3.65625 14.7688 2.19375 13.3063C0.73125 11.8438 0 10.075 0 8C0 5.925 0.73125 4.15625 2.19375 2.69375C3.65625 1.23125 5.425 0.5 7.5 0.5H13.5V3.5H7.5C6.25 3.5 5.1875 3.9375 4.3125 4.8125C3.4375 5.6875 3 6.75 3 8C3 9.25 3.4375 10.3125 4.3125 11.1875C5.1875 12.0625 6.25 12.5 7.5 12.5H13.5V15.5ZM9 9.5V6.5H21V9.5H9ZM16.5 15.5V12.5H22.5C23.75 12.5 24.8125 12.0625 25.6875 11.1875C26.5625 10.3125 27 9.25 27 8C27 6.75 26.5625 5.6875 25.6875 4.8125C24.8125 3.9375 23.75 3.5 22.5 3.5H16.5V0.5H22.5C24.575 0.5 26.3438 1.23125 27.8063 2.69375C29.2688 4.15625 30 5.925 30 8C30 10.075 29.2688 11.8438 27.8063 13.3063C26.3438 14.7688 24.575 15.5 22.5 15.5H16.5Z" fill="#420607"/>
</svg>
